<svg xmlns="http://www.w3.org/2000/svg" viewBox="0 0 800 500">
  <!-- Background -->
  <rect width="800" height="500" rx="15" fill="#121212" />
  
  <!-- Header -->
  <rect x="50" y="30" width="700" height="70" rx="10" fill="#1E1E1E" />
  <text x="400" y="70" font-family="Arial" font-size="24" font-weight="bold" fill="#FFFFFF" text-anchor="middle">COMMAND LINE SOCIAL MEDIA DOWNLOADERS</text>
  <text x="400" y="95" font-family="Arial" font-size="18" fill="#00BFFF" text-anchor="middle">by CYBER KALKI</text>
  
  <!-- Tool Cards -->
  <!-- YouTube Downloader -->
  <rect x="65" y="130" width="220" height="290" rx="10" fill="#1E1E1E" stroke="#FF0000" stroke-width="2" />
  <rect x="125" y="150" width="100" height="70" rx="15" fill="#FF0000" />
  <polygon points="175,165 195,185 155,185" fill="#FFFFFF" />
  <text x="175" y="250" font-family="Arial" font-size="18" font-weight="bold" fill="#FFFFFF" text-anchor="middle">YouTube Downloader</text>
  <text x="175" y="270" font-family="Arial" font-size="14" fill="#CCCCCC" text-anchor="middle">for Termux (YTDL)</text>
  <rect x="85" y="290" width="180" height="60" rx="5" fill="#2A2A2A" />
  <text x="175" y="315" font-family="monospace" font-size="11" fill="#00BFFF" text-anchor="middle">github.com/krivadna/</text>
  <text x="175" y="335" font-family="monospace" font-size="11" fill="#00BFFF" text-anchor="middle">Youtubedownloadtermux</text>

  <!-- Instagram Downloader -->
  <rect x="295" y="130" width="220" height="290" rx="10" fill="#1E1E1E" stroke="#E1306C" stroke-width="2" />
  <rect x="355" y="150" width="100" height="70" rx="20" stroke="#E1306C" stroke-width="8" fill="none" />
  <circle cx="405" cy="185" r="20" stroke="#E1306C" stroke-width="8" fill="none" />
  <circle cx="435" cy="155" r="5" fill="#E1306C" />
  <text x="405" y="250" font-family="Arial" font-size="18" font-weight="bold" fill="#FFFFFF" text-anchor="middle">Instagram Downloader</text>
  <text x="405" y="270" font-family="Arial" font-size="14" fill="#CCCCCC" text-anchor="middle">for Termux (ITDL)</text>
  <rect x="315" y="290" width="180" height="60" rx="5" fill="#2A2A2A" />
  <text x="405" y="315" font-family="monospace" font-size="11" fill="#00BFFF" text-anchor="middle">github.com/krivadna/</text>
  <text x="405" y="335" font-family="monospace" font-size="11" fill="#00BFFF" text-anchor="middle">termuxinstadownloader</text>
  
  <!-- X/Twitter Downloader -->
  <rect x="525" y="130" width="220" height="290" rx="10" fill="#1E1E1E" stroke="#1DA1F2" stroke-width="2" />
  <text x="635" y="205" font-family="Arial" font-size="70" font-weight="bold" fill="#FFFFFF" text-anchor="middle">𝕏</text>
  <text x="635" y="250" font-family="Arial" font-size="18" font-weight="bold" fill="#FFFFFF" text-anchor="middle">X/Twitter Downloader</text>
  <text x="635" y="270" font-family="Arial" font-size="14" fill="#CCCCCC" text-anchor="middle">for Termux (XDL)</text>
  <rect x="545" y="290" width="180" height="60" rx="5" fill="#2A2A2A" />
  <text x="635" y="315" font-family="monospace" font-size="11" fill="#00BFFF" text-anchor="middle">github.com/krivadna/</text>
  <text x="635" y="335" font-family="monospace" font-size="11" fill="#00BFFF" text-anchor="middle">xdlbykalki</text>
  
  <!-- Terminal Icons (Increased Width) -->
  <rect x="115" y="370" width="120" height="30" rx="5" fill="#000000" stroke="#333333" />
  <text x="175" y="390" font-family="monospace" font-size="12" fill="#00FF00" text-anchor="middle">$ ./ytdl</text>
  
  <rect x="345" y="370" width="120" height="30" rx="5" fill="#000000" stroke="#333333" />
  <text x="405" y="390" font-family="monospace" font-size="12" fill="#00FF00" text-anchor="middle">$ ./itdlbykalki</text>
  
  <rect x="575" y="370" width="120" height="30" rx="5" fill="#000000" stroke="#333333" />
  <text x="635" y="390" font-family="monospace" font-size="12" fill="#00FF00" text-anchor="middle">$ ./xdlbykalki</text>
  
  <!-- Footer -->
  <rect x="50" y="440" width="700" height="40" rx="5" fill="#1E1E1E" />
  <text x="400" y="465" font-family="Arial" font-size="14" fill="#FFFFFF" text-anchor="middle">@codeontermux • Audio/Video Downloaders for Termux • No Obsolete Packages</text>
</svg>
